<svg xmlns="http://www.w3.org/2000/svg" xmlns:xlink="http://www.w3.org/1999/xlink" width="500" zoomAndPan="magnify" viewBox="0 0 375 374.999991" height="500" preserveAspectRatio="xMidYMid meet" version="1.0"><defs><g/><clipPath id="004e118262"><path d="M 194 133.980469 L 225 133.980469 L 225 196 L 194 196 Z M 194 133.980469 " clip-rule="nonzero"/></clipPath><clipPath id="952cb36bd3"><path d="M 150 133.980469 L 181 133.980469 L 181 196 L 150 196 Z M 150 133.980469 " clip-rule="nonzero"/></clipPath></defs><rect x="-37.5" width="450" fill="#ffffff" y="-37.499999" height="449.999989" fill-opacity="1"/><rect x="-37.5" width="450" fill="#000000" y="-37.499999" height="449.999989" fill-opacity="1"/><g clip-path="url(#004e118262)"><path fill="#ffffff" d="M 194.015625 133.976562 L 194.015625 146.628906 L 212.296875 164.910156 L 194.015625 183.191406 L 194.015625 195.847656 L 224.953125 164.910156 Z M 194.015625 133.976562 " fill-opacity="1" fill-rule="nonzero"/></g><g clip-path="url(#952cb36bd3)"><path fill="#ffffff" d="M 181 146.628906 L 181 133.976562 L 150.0625 164.910156 L 181 195.847656 L 181 183.191406 L 162.71875 164.910156 Z M 181 146.628906 " fill-opacity="1" fill-rule="nonzero"/></g><path fill="#ffffff" d="M 172.398438 164.910156 L 187.507812 149.800781 L 202.617188 164.910156 L 187.507812 180.019531 Z M 172.398438 164.910156 " fill-opacity="1" fill-rule="nonzero"/><g fill="#ffffff" fill-opacity="1"><g transform="translate(92.534013, 223.67874)"><g><path d="M 10.390625 -9.234375 L 21.859375 -9.234375 L 21.859375 -6.40625 C 21.859375 -4.78125 21.523438 -3.472656 20.859375 -2.484375 C 20.191406 -1.492188 19.117188 -0.769531 17.640625 -0.3125 C 16.160156 0.132812 14.1875 0.359375 11.71875 0.359375 C 9.175781 0.359375 7.175781 0.101562 5.71875 -0.40625 C 4.257812 -0.925781 3.203125 -1.757812 2.546875 -2.90625 C 1.890625 -4.050781 1.5625 -5.613281 1.5625 -7.59375 C 1.5625 -9.613281 1.835938 -11.191406 2.390625 -12.328125 C 2.953125 -13.460938 3.875 -14.28125 5.15625 -14.78125 C 6.445312 -15.28125 8.242188 -15.53125 10.546875 -15.53125 C 14.523438 -15.53125 17.972656 -15.410156 20.890625 -15.171875 L 21.015625 -11.109375 C 17.222656 -11.460938 14.175781 -11.703125 11.875 -11.828125 C 10.570312 -11.898438 8.804688 -11.972656 6.578125 -12.046875 L 6.578125 -3.796875 C 8.179688 -3.703125 9.960938 -3.65625 11.921875 -3.65625 C 13.921875 -3.65625 15.75 -3.703125 17.40625 -3.796875 L 17.40625 -6.109375 L 10.390625 -6.109375 Z M 10.390625 -9.234375 "/></g></g></g><g fill="#ffffff" fill-opacity="1"><g transform="translate(117.859635, 223.67874)"><g><path d="M 7.1875 -15.171875 L 13.8125 -15.171875 L 21.109375 -0.109375 L 21.109375 0 L 16.125 0 L 14.75 -2.984375 L 6.1875 -2.984375 L 4.796875 0 L -0.0625 0 L -0.0625 -0.109375 Z M 10.421875 -12.078125 L 7.765625 -6.359375 L 13.1875 -6.359375 L 10.53125 -12.078125 Z M 10.421875 -12.078125 "/></g></g></g><g fill="#ffffff" fill-opacity="1"><g transform="translate(141.154812, 223.67874)"><g><path d="M 12.140625 0 L 7.5625 0 L 7.5625 -11.3125 L 0.171875 -11.3125 L 0.171875 -15.171875 L 19.515625 -15.171875 L 19.515625 -11.3125 L 12.140625 -11.3125 Z M 12.140625 0 "/></g></g></g><g fill="#ffffff" fill-opacity="1"><g transform="translate(163.088918, 223.67874)"><g><path d="M 16.640625 -9.65625 L 16.640625 -15.171875 L 21.21875 -15.171875 L 21.21875 0 L 16.640625 0 L 16.640625 -5.78125 L 7.03125 -5.78125 L 7.03125 0 L 2.453125 0 L 2.453125 -15.171875 L 7.03125 -15.171875 L 7.03125 -9.65625 Z M 16.640625 -9.65625 "/></g></g></g><g fill="#ffffff" fill-opacity="1"><g transform="translate(188.994666, 223.67874)"><g><path d="M 20.03125 0 L 2.453125 0 L 2.453125 -15.171875 L 19.703125 -15.171875 L 19.703125 -11.46875 L 7.03125 -11.46875 L 7.03125 -9.140625 L 16.265625 -9.140625 L 16.265625 -6.03125 L 7.03125 -6.03125 L 7.03125 -3.703125 L 20.03125 -3.703125 Z M 20.03125 0 "/></g></g></g><g fill="#ffffff" fill-opacity="1"><g transform="translate(212.602224, 223.67874)"><g><path d="M 6.84375 0 L 2.453125 0 L 2.453125 -15.171875 L 10.015625 -15.171875 L 16.953125 -3.09375 L 17.0625 -3.09375 L 17.0625 -15.171875 L 21.46875 -15.171875 L 21.46875 0 L 13.90625 0 L 6.96875 -12.078125 L 6.84375 -12.078125 Z M 6.84375 0 "/></g></g></g><g fill="#ffffff" fill-opacity="1"><g transform="translate(238.753414, 223.67874)"><g><path d="M 2.453125 0 L 2.453125 -15.171875 L 13.4375 -15.171875 C 15.59375 -15.171875 17.296875 -14.925781 18.546875 -14.4375 C 19.796875 -13.957031 20.703125 -13.171875 21.265625 -12.078125 C 21.828125 -10.984375 22.109375 -9.488281 22.109375 -7.59375 C 22.109375 -5.6875 21.828125 -4.1875 21.265625 -3.09375 C 20.703125 -2 19.796875 -1.207031 18.546875 -0.71875 C 17.296875 -0.238281 15.59375 0 13.4375 0 Z M 7.03125 -11.3125 L 7.03125 -3.875 L 17.109375 -3.875 L 17.109375 -11.3125 Z M 7.03125 -11.3125 "/></g></g></g><g fill="#ffffff" fill-opacity="1"><g transform="translate(264.659162, 223.67874)"><g><path d="M 16.359375 0 L 1.453125 0 L 1.453125 -3.65625 L 6.734375 -3.65625 L 6.734375 -11.53125 L 1.453125 -11.53125 L 1.453125 -15.171875 L 16.359375 -15.171875 L 16.359375 -11.53125 L 11.09375 -11.53125 L 11.09375 -3.65625 L 16.359375 -3.65625 Z M 16.359375 0 "/></g></g></g></svg>